<svg width="117" height="17" viewBox="0 0 117 17" fill="none" xmlns="http://www.w3.org/2000/svg">
<path d="M104.684 4.0087C104.494 4.0087 104.368 4.13499 104.368 4.32441V6.85013C104.368 7.03955 104.494 7.16584 104.684 7.16584H113.713C113.776 7.16584 113.871 7.19741 113.934 7.26055L116.902 10.2283C116.965 10.2914 116.997 10.3545 116.997 10.4493V13.3538C116.997 13.4485 116.965 13.5117 116.902 13.5748L113.934 16.5425C113.871 16.6057 113.776 16.6373 113.713 16.6373H101.527C101.337 16.6373 101.211 16.511 101.211 16.3215V13.7958C101.211 13.6064 101.337 13.4801 101.527 13.4801H113.524C113.682 13.4801 113.839 13.3538 113.839 13.1644V10.6387C113.839 10.4493 113.682 10.323 113.524 10.323H104.494C104.4 10.323 104.337 10.2914 104.273 10.2283L101.306 7.26055C101.243 7.19741 101.211 7.13427 101.211 7.03955V4.13499C101.211 4.04027 101.243 3.97713 101.306 3.91399L104.273 0.946276C104.337 0.883133 104.4 0.851562 104.494 0.851562H116.681C116.839 0.851562 116.997 0.977847 116.997 1.16728V3.69299C116.997 3.88242 116.839 4.0087 116.681 4.0087H104.684Z" fill="#424242"/>
<path d="M94.8629 4.32441C94.8629 4.13499 94.7051 4.0087 94.5472 4.0087H85.7072C85.5178 4.0087 85.3915 4.13499 85.3915 4.32441V13.1644C85.3915 13.3538 85.5178 13.4801 85.7072 13.4801H94.5472C94.7051 13.4801 94.8629 13.3538 94.8629 13.1644V4.32441ZM82.2344 13.3538V4.13499C82.2344 4.04027 82.2659 3.97713 82.3291 3.91399L85.2968 0.946276C85.3599 0.883133 85.4231 0.851562 85.5178 0.851562H94.7366C94.7998 0.851562 94.8945 0.883133 94.9576 0.946276L97.9254 3.91399C97.9885 3.97713 98.0201 4.04027 98.0201 4.13499V13.3538C98.0201 13.4485 97.9885 13.5117 97.9254 13.5748L94.9576 16.5425C94.8945 16.6057 94.7998 16.6373 94.7366 16.6373H85.5178C85.4231 16.6373 85.3599 16.6057 85.2968 16.5425L82.3291 13.5748C82.2659 13.5117 82.2344 13.4485 82.2344 13.3538Z" fill="#424242"/>
<path d="M66.2826 0.851562C66.3458 0.851562 66.4405 0.883133 66.5036 0.946276L69.4713 3.91399C69.5345 3.97713 69.5661 4.04027 69.5661 4.13499V16.3215C69.5661 16.511 69.4082 16.6373 69.2503 16.6373H66.7246C66.5352 16.6373 66.4089 16.511 66.4089 16.3215V4.32441C66.4089 4.13499 66.2511 4.0087 66.0932 4.0087H60.4104C60.2209 4.0087 60.0946 4.13499 60.0946 4.32441V16.3215C60.0946 16.511 59.9368 16.6373 59.7789 16.6373H57.2532C57.0638 16.6373 56.9375 16.511 56.9375 16.3215V4.13499C56.9375 4.04027 56.9691 3.97713 57.0322 3.91399L59.9999 0.946276C60.0631 0.883133 60.1262 0.851562 60.2209 0.851562H66.2826ZM69.9449 3.69299V1.16728C69.9449 0.977847 70.0712 0.851562 70.2606 0.851562H75.754C75.8172 0.851562 75.9119 0.883133 75.9751 0.946276L78.9428 3.91399C79.0059 3.97713 79.0375 4.04027 79.0375 4.13499V16.3215C79.0375 16.511 78.8796 16.6373 78.7218 16.6373H76.1961C76.0066 16.6373 75.8803 16.511 75.8803 16.3215V4.32441C75.8803 4.13499 75.7225 4.0087 75.5646 4.0087H70.2606C70.0712 4.0087 69.9449 3.88242 69.9449 3.69299Z" fill="#424242"/>
<path d="M47.4324 13.1644C47.4324 13.3538 47.5586 13.4801 47.7481 13.4801H53.4309C53.5888 13.4801 53.7466 13.6064 53.7466 13.7958V16.3215C53.7466 16.511 53.5888 16.6373 53.4309 16.6373H38.2767C38.0872 16.6373 37.9609 16.511 37.9609 16.3215V13.7958C37.9609 13.6064 38.0872 13.4801 38.2767 13.4801H43.9595C44.1174 13.4801 44.2752 13.3538 44.2752 13.1644V4.32441C44.2752 4.13499 44.1174 4.0087 43.9595 4.0087H38.2767C38.0872 4.0087 37.9609 3.88242 37.9609 3.69299V1.16728C37.9609 0.977847 38.0872 0.851562 38.2767 0.851562H53.4309C53.5888 0.851562 53.7466 0.977847 53.7466 1.16728V3.69299C53.7466 3.88242 53.5888 4.0087 53.4309 4.0087H47.7481C47.5586 4.0087 47.4324 4.13499 47.4324 4.32441V13.1644Z" fill="#424242"/>
<path d="M22.4572 4.0087C22.2678 4.0087 22.1415 4.13499 22.1415 4.32441V6.85013C22.1415 7.03955 22.2678 7.16584 22.4572 7.16584H31.2972C31.4551 7.16584 31.6129 7.29213 31.6129 7.48155V10.0073C31.6129 10.1967 31.4551 10.323 31.2972 10.323H22.4572C22.2678 10.323 22.1415 10.4493 22.1415 10.6387V13.1644C22.1415 13.3538 22.2678 13.4801 22.4572 13.4801H34.4544C34.6122 13.4801 34.7701 13.6064 34.7701 13.7958V16.3215C34.7701 16.511 34.6122 16.6373 34.4544 16.6373H22.2678C22.1731 16.6373 22.1099 16.6057 22.0468 16.5425L19.0791 13.5748C19.0159 13.5117 18.9844 13.4485 18.9844 13.3538V4.13499C18.9844 4.04027 19.0159 3.97713 19.0791 3.91399L22.0468 0.946276C22.1099 0.883133 22.1731 0.851562 22.2678 0.851562H34.4544C34.6122 0.851562 34.7701 0.977847 34.7701 1.16728V3.69299C34.7701 3.88242 34.6122 4.0087 34.4544 4.0087H22.4572Z" fill="#424242"/>
<path d="M12.6286 4.32441C12.6286 4.13499 12.4707 4.0087 12.3128 4.0087H3.47285C3.28342 4.0087 3.15714 4.13499 3.15714 4.32441V13.1644C3.15714 13.3538 3.28342 13.4801 3.47285 13.4801H12.3128C12.4707 13.4801 12.6286 13.3538 12.6286 13.1644V4.32441ZM0 16.3215V1.16728C0 0.977847 0.126286 0.851562 0.315714 0.851562H12.5023C12.5654 0.851562 12.6601 0.883133 12.7233 0.946276L15.691 3.91399C15.7541 3.97713 15.7857 4.04027 15.7857 4.13499V13.3538C15.7857 13.4485 15.7541 13.5117 15.691 13.5748L12.7233 16.5425C12.6601 16.6057 12.5654 16.6373 12.5023 16.6373H0.315714C0.126286 16.6373 0 16.511 0 16.3215Z" fill="#424242"/>
</svg>
