<svg width="107" height="40" viewBox="0 0 107 40" fill="none" xmlns="http://www.w3.org/2000/svg">
<path d="M24.2041 0H0V6.52407H24.2041V0Z" fill="#3CC5E8"/>
<path d="M24.2041 33.4146H0V39.944H24.2041V33.4146Z" fill="#3CC5E8"/>
<path d="M0 28.1683L0.925153 27.0564C1.5876 26.2526 2.49309 25.6856 3.50545 25.4407C4.51782 25.1958 5.58233 25.2862 6.53891 25.6983C7.98988 26.3564 9.56361 26.7002 11.1568 26.7072C12.8867 26.7072 13.8127 26.1085 13.8127 25.1127V25.049C13.8127 24.0828 13.0525 23.5399 9.88517 22.8155C4.93124 21.6887 1.10844 20.3001 1.10844 15.5016V15.4317C1.11193 11.1062 4.53849 7.97726 10.1243 7.97726C14.078 7.97726 17.1668 9.04381 19.6813 11.0757L18.8958 12.1823C18.262 13.0568 17.3597 13.7001 16.3264 14.0143C15.2931 14.3285 14.1854 14.2963 13.1721 13.9227C12.1328 13.5464 11.0376 13.3476 9.9323 13.3344C8.37351 13.3344 7.60895 13.9986 7.60895 14.8435V14.9089C7.60895 15.9755 8.40318 16.418 11.6325 17.1677C16.9949 18.3093 20.3246 20.0392 20.3246 24.3952V24.4607C20.3246 29.2191 16.562 32.0461 10.9081 32.0461C6.78591 32.0461 2.86186 30.7482 0.00523672 28.191" fill="#3CC5E8"/>
<path d="M33.1985 32.0461C30.8162 32.0525 28.4854 31.3522 26.5011 30.0338C24.5167 28.7154 22.9679 26.8382 22.0505 24.6395C21.1332 22.4408 20.8885 20.0195 21.3474 17.6817C21.8063 15.3439 22.9482 13.1947 24.6286 11.506C26.3091 9.81725 28.4526 8.66479 30.7881 8.19438C33.1235 7.72397 35.5461 7.95674 37.7492 8.86325C39.9524 9.76975 41.8373 11.3093 43.1654 13.2871C44.4936 15.2649 45.2053 17.5922 45.2107 19.9746V20.0043C45.2036 23.1907 43.9369 26.2451 41.6868 28.5014C39.4368 30.7577 36.3858 32.0328 33.1994 32.0487L33.1985 32.0461ZM33.1994 14.0466C32.0206 14.0416 30.8668 14.3863 29.8839 15.0371C28.9009 15.6878 28.1331 16.6154 27.6773 17.7026C27.2216 18.7898 27.0985 19.9877 27.3235 21.1448C27.5486 22.3019 28.1118 23.3664 28.9418 24.2034C29.7718 25.0405 30.8314 25.6127 31.9865 25.8476C33.1417 26.0825 34.3406 25.9695 35.4316 25.523C36.5226 25.0766 37.4567 24.3166 38.1158 23.3392C38.7749 22.3619 39.1293 21.211 39.1344 20.0322V20.0069C39.133 18.4309 38.5081 16.9195 37.3961 15.8028C36.2841 14.6861 34.7754 14.0547 33.1994 14.0466Z" fill="#3CC5E8"/>
<path d="M67.7396 7.87693C66.1378 7.81009 64.5387 8.06374 63.0362 8.62299C61.5336 9.18224 60.1579 10.0358 58.9895 11.1337C57.8212 12.2316 56.8838 13.5517 56.2323 15.0167C55.5809 16.4816 55.2284 18.0618 55.1956 19.6647C55.1629 21.2676 55.4504 22.861 56.0415 24.3513C56.6326 25.8416 57.5152 27.1989 58.6377 28.3436C59.7602 29.4884 61.0999 30.3975 62.5783 31.0177C64.0568 31.6379 65.6441 31.9567 67.2474 31.9553C67.4115 31.9588 67.5756 31.9588 67.7396 31.9553C69.8302 31.9553 71.8839 31.4054 73.6947 30.3608V31.9553H79.7727V19.8184C79.7384 16.6469 78.4573 13.6163 76.2064 11.3817C73.9555 9.14719 70.9157 7.8882 67.744 7.87693H67.7396ZM67.744 25.8746C66.565 25.8757 65.4121 25.5271 64.4312 24.8729C63.4503 24.2187 62.6854 23.2883 62.2333 22.1994C61.7812 21.1105 61.6622 19.9119 61.8912 18.7554C62.1203 17.5988 62.6872 16.5361 63.5202 15.7018C64.3533 14.8674 65.415 14.2988 66.5712 14.0678C67.7274 13.8369 68.9261 13.954 70.0158 14.4044C71.1054 14.8548 72.037 15.6181 72.6928 16.598C73.3486 17.5778 73.699 18.7301 73.6999 19.9092C73.6971 21.4884 73.0689 23.0022 71.9527 24.1194C70.8365 25.2366 69.3232 25.8661 67.744 25.8703" fill="#069AD7"/>
<path d="M94.9592 7.87689C92.8677 7.87696 90.8128 8.42493 88.9989 9.46624V0C87.3874 0 85.8419 0.640183 84.7023 1.77972C83.5628 2.91925 82.9226 4.46479 82.9226 6.07633V31.9553H88.9989V30.3607C90.8113 31.4062 92.8669 31.9561 94.9592 31.9553C98.0907 31.8629 101.063 30.554 103.245 28.3063C105.428 26.0586 106.649 23.049 106.649 19.9161C106.649 16.7832 105.428 13.7736 103.245 11.5259C101.063 9.27818 98.0907 7.96927 94.9592 7.87689ZM94.9592 25.8746C93.7802 25.8748 92.6276 25.5253 91.6471 24.8704C90.6667 24.2155 89.9025 23.2845 89.4512 22.1953C88.9999 21.1061 88.8817 19.9075 89.1116 18.7511C89.3415 17.5947 89.9092 16.5324 90.7429 15.6986C91.5765 14.8649 92.6387 14.297 93.795 14.067C94.9514 13.8369 96.15 13.9549 97.2393 14.406C98.3287 14.8572 99.2597 15.6212 99.9148 16.6016C100.57 17.5819 100.919 18.7344 100.919 19.9135C100.92 20.6963 100.765 21.4714 100.466 22.1946C100.167 22.9179 99.7275 23.575 99.174 24.1286C98.6206 24.6821 97.9635 25.1212 97.2403 25.4208C96.5171 25.7204 95.742 25.8746 94.9592 25.8746Z" fill="#069AD7"/>
<path d="M53.4938 32.0461H47.4131V6.20202C47.3982 4.57358 48.0302 3.0058 49.1703 1.84296C50.3104 0.680115 51.8654 0.0172761 53.4938 0V32.0461Z" fill="#069AD7"/>
<path d="M32.2074 34.9586H30.2908V33.4094H35.8836V34.9586H33.9722V39.7921H32.2074V34.9586Z" fill="#069AD7"/>
<path d="M36.8447 33.4094H41.9706V34.9132H38.5903V35.8794H41.6538V37.2776H38.5903V38.283H42.016V39.7877H36.8447V33.4094Z" fill="#069AD7"/>
<path d="M42.8351 36.6186C42.824 35.7507 43.1578 34.9138 43.7633 34.2919C44.3689 33.67 45.1965 33.314 46.0644 33.302C46.109 33.302 46.1517 33.302 46.1971 33.302C46.7238 33.2784 47.248 33.3882 47.7209 33.6212C48.1939 33.8542 48.6004 34.2028 48.9028 34.6347L47.57 35.6411C47.4141 35.414 47.2058 35.2278 46.9627 35.0982C46.7197 34.9686 46.449 34.8995 46.1735 34.8966C45.7577 34.9118 45.3649 35.0914 45.0814 35.3959C44.7978 35.7004 44.6466 36.105 44.661 36.5208C44.661 36.54 44.661 36.5584 44.661 36.5767C44.6433 36.7827 44.6665 36.9902 44.7291 37.1873C44.7918 37.3844 44.8928 37.5671 45.0263 37.7251C45.1597 37.883 45.3231 38.0131 45.5069 38.1078C45.6908 38.2025 45.8915 38.2599 46.0976 38.2769C46.1221 38.2769 46.1456 38.2769 46.1701 38.2812C46.455 38.2803 46.7353 38.2092 46.9861 38.0742C47.237 37.9392 47.4507 37.7444 47.6084 37.5071L48.9359 38.4575C48.5308 39.0405 47.9512 39.4799 47.2805 39.7125C46.6098 39.9452 45.8826 39.9591 45.2035 39.7522C44.5244 39.5454 43.9284 39.1285 43.5012 38.5615C43.0741 37.9945 42.8378 37.3066 42.8264 36.5968" fill="#069AD7"/>
<path d="M49.8875 33.4094H51.6531V35.7991H53.9215V33.4094H55.6871V39.7877H53.9215V37.3683H51.6531V39.7877H49.8875V33.4094Z" fill="#069AD7"/>
<path d="M57.0051 33.4094H58.6503L61.2704 36.7845V33.4094H63.0212V39.7877H61.472L58.7559 36.2913V39.7877H57.0051V33.4094Z" fill="#069AD7"/>
<path d="M64.1174 36.6186C64.164 35.7388 64.5462 34.9104 65.1854 34.3041C65.8247 33.6978 66.6721 33.3598 67.5532 33.3598C68.4342 33.3598 69.2816 33.6978 69.9209 34.3041C70.5601 34.9104 70.9423 35.7388 70.9889 36.6186C70.9745 37.5203 70.6062 38.3803 69.9634 39.0129C69.3207 39.6455 68.455 40 67.5532 40C66.6513 40 65.7856 39.6455 65.1429 39.0129C64.5001 38.3803 64.1318 37.5203 64.1174 36.6186ZM69.1796 36.6186C69.1961 36.1802 69.0382 35.7531 68.7405 35.4308C68.4428 35.1085 68.0295 34.9174 67.5911 34.8992H67.5396C67.3263 34.9009 67.1153 34.9447 66.9188 35.0279C66.7224 35.1112 66.5442 35.2324 66.3946 35.3845C66.245 35.5366 66.1268 35.7168 66.0468 35.9146C65.9668 36.1124 65.9266 36.3241 65.9285 36.5374C65.9285 36.5575 65.9285 36.5785 65.9285 36.5994C65.9197 36.8172 65.954 37.0346 66.0293 37.2392C66.1046 37.4437 66.2195 37.6314 66.3675 37.7915C66.5154 37.9516 66.6935 38.081 66.8915 38.1722C67.0894 38.2634 67.3035 38.3147 67.5213 38.3232H67.558C67.9901 38.3206 68.4036 38.1467 68.7077 37.8395C69.0117 37.5324 69.1814 37.1171 69.1796 36.6849C69.1796 36.6623 69.1796 36.6396 69.1796 36.6177" fill="#069AD7"/>
<path d="M72.0901 33.4094H73.8557V38.2385H76.9437V39.7877H72.0901V33.4094Z" fill="#069AD7"/>
<path d="M77.301 36.6186C77.3327 35.7293 77.7083 34.887 78.3487 34.269C78.9891 33.6511 79.8442 33.3058 80.7341 33.3058C81.624 33.3058 82.4792 33.6511 83.1196 34.269C83.7599 34.887 84.1355 35.7293 84.1672 36.6186C84.1355 37.508 83.7599 38.3503 83.1196 38.9682C82.4792 39.5862 81.624 39.9315 80.7341 39.9315C79.8442 39.9315 78.9891 39.5862 78.3487 38.9682C77.7083 38.3503 77.3327 37.508 77.301 36.6186ZM82.3632 36.6186C82.3797 36.1802 82.2218 35.7531 81.9241 35.4308C81.6264 35.1085 81.2131 34.9174 80.7747 34.8992H80.7232C80.2924 34.9015 79.88 35.0749 79.5769 35.3811C79.2738 35.6873 79.1047 36.1014 79.1068 36.5322C79.1068 36.5549 79.1068 36.5767 79.1068 36.5994C79.0981 36.8172 79.1323 37.0346 79.2076 37.2392C79.283 37.4437 79.3979 37.6314 79.5458 37.7915C79.6938 37.9516 79.8718 38.081 80.0698 38.1722C80.2678 38.2635 80.4818 38.3147 80.6997 38.3232H80.7415C81.1724 38.3222 81.5853 38.1503 81.8894 37.845C82.1934 37.5398 82.3639 37.1263 82.3632 36.6954C82.3632 36.6692 82.3632 36.6431 82.3632 36.6177" fill="#069AD7"/>
<path d="M85.0575 36.6186C85.0561 35.741 85.4031 34.8987 86.0224 34.2769C86.6416 33.655 87.4825 33.3044 88.3601 33.302H88.4884C89.4334 33.2619 90.3581 33.5841 91.0736 34.2028L90.0376 35.4596C89.6195 35.0704 89.0691 34.8548 88.498 34.8565C88.2781 34.8621 88.0615 34.9111 87.8606 35.0005C87.6596 35.0899 87.4783 35.218 87.3269 35.3775C87.1755 35.537 87.057 35.7248 86.9782 35.9301C86.8994 36.1354 86.8618 36.3543 86.8676 36.5741C86.8676 36.5855 86.8676 36.5959 86.8676 36.6064C86.8463 37.0527 87.0029 37.4893 87.3032 37.8202C87.6035 38.1511 88.0229 38.3493 88.4692 38.3712C88.5119 38.3712 88.5564 38.3712 88.5975 38.3712C88.9514 38.385 89.3015 38.2939 89.6038 38.1094V37.3553H88.3522V36.0601H91.2848V38.9324C90.5079 39.5835 89.5264 39.9398 88.5128 39.9387C86.5316 39.9387 85.0479 38.5702 85.0479 36.6387" fill="#069AD7"/>
<path d="M94.2723 33.4094H92.4971V39.7877H94.2723V33.4094Z" fill="#069AD7"/>
<path d="M95.6208 33.4094H100.751V34.9132H97.3708V35.8794H100.434V37.2776H97.3708V38.283H100.796V39.7877H95.6208V33.4094Z" fill="#069AD7"/>
<path d="M101.395 38.8389L102.402 37.6624C102.982 38.1481 103.712 38.4182 104.468 38.427C104.947 38.427 105.198 38.2655 105.198 37.9906C105.198 37.7244 104.992 37.5778 104.126 37.3796C102.763 37.0724 101.717 36.6901 101.717 35.3679C101.717 34.1852 102.657 33.3308 104.186 33.3308C105.134 33.2942 106.064 33.5934 106.813 34.1756L105.928 35.4229C105.407 35.024 104.777 34.794 104.122 34.7639C103.694 34.7639 103.483 34.9498 103.483 35.1767C103.483 35.4682 103.704 35.5992 104.59 35.7999C106.048 36.1167 106.964 36.5854 106.964 37.8073C106.964 39.1104 105.957 39.8854 104.388 39.8854C103.296 39.9134 102.232 39.5413 101.395 38.8389Z" fill="#069AD7"/>
</svg>
